# This file uses centimeters as units for non-parametric coordinates.

mtllib boton.mtl
g default
v -0.031800 0.061220 -0.035942
v 0.016870 0.061220 -0.035942
v 0.051285 0.026805 -0.035942
v 0.051285 -0.021865 -0.035942
v 0.016870 -0.056280 -0.035942
v -0.031800 -0.056280 -0.035942
v -0.066215 -0.021865 -0.035942
v -0.066215 0.026805 -0.035942
v -0.019990 0.041228 0.019275
v -0.031800 0.061220 0.005309
v 0.005059 0.041228 0.019275
v 0.016870 0.061220 0.005309
v 0.037319 0.021020 0.019275
v 0.051285 0.026805 0.005309
v 0.037319 -0.016080 0.019275
v 0.051285 -0.021865 0.005309
v 0.005059 -0.036289 0.019275
v 0.016870 -0.056280 0.005309
v -0.019990 -0.036289 0.019275
v -0.031800 -0.056280 0.005309
v -0.052249 -0.016080 0.019275
v -0.066215 -0.021865 0.005309
v -0.052249 0.021020 0.019275
v -0.066215 0.026805 0.005309
v -0.026015 0.047254 0.019275
v 0.011085 0.047254 0.019275
v 0.011085 -0.042314 0.019275
v -0.026015 -0.042314 0.019275
v -0.019990 0.033552 0.042811
v -0.019990 0.041228 0.035136
v 0.005059 0.041228 0.035136
v 0.005059 0.033552 0.042811
v 0.005059 -0.028613 0.042811
v 0.005059 -0.036289 0.035136
v -0.019990 -0.036289 0.035136
v -0.019990 -0.028613 0.042811
vt 0.937216 0.770243
vt 0.934268 0.773721
vt 0.934268 0.770243
vt 0.937216 0.752852
vt 0.934268 0.756330
vt 0.934268 0.752852
vt 0.937216 0.756330
vt 0.934268 0.759808
vt 0.937216 0.759808
vt 0.934268 0.763286
vt 0.937216 0.763286
vt 0.934268 0.766764
vt 0.937216 0.766764
vt 0.937216 0.745895
vt 0.934268 0.749374
vt 0.934268 0.745895
vt 0.937216 0.749374
vt 0.699124 0.610738
vt 0.700599 0.607547
vt 0.700556 0.610117
vt 0.701752 0.613445
vt 0.702319 0.611990
vt 0.704883 0.612020
vt 0.705525 0.613445
vt 0.706722 0.610202
vt 0.708179 0.610764
vt 0.706765 0.607632
vt 0.708197 0.607011
vt 0.705002 0.605759
vt 0.705569 0.604304
vt 0.702438 0.605729
vt 0.701796 0.604304
vt 0.699142 0.606985
vt 0.921344 0.002529
vt 0.921893 0.007520
vt 0.921344 0.008068
vt 0.700986 0.609704
vt 0.701013 0.607976
vt 0.706335 0.608045
vt 0.706308 0.609773
vt 0.705671 0.539042
vt 0.705122 0.534051
vt 0.705671 0.533503
vt 0.699150 0.570202
vt 0.700940 0.565759
vt 0.700940 0.570202
vt 0.700940 0.563850
vt 0.699150 0.564984
vt 0.699150 0.563850
vt 0.699150 0.570978
vt 0.699150 0.565759
vt 0.700940 0.564984
vt 0.699150 0.572111
vt 0.700940 0.570978
vt 0.700940 0.572111
vt 0.920211 0.002529
vt 0.920211 0.008068
vt 0.706804 0.539042
vt 0.706804 0.533503
vt 0.937216 0.773721
vt 0.921893 0.003077
vt 0.705122 0.538494
vn -0.858735 0.355700 0.368852
vn -0.382684 0.923879 -0.000000
vn -0.923880 0.382683 -0.000000
vn 0.858735 0.355700 0.368852
vn 0.923881 -0.382681 -0.000000
vn 0.923880 0.382683 -0.000000
vn 0.858735 -0.355700 0.368853
vn 0.382683 -0.923880 0.000000
vn 0.923881 -0.382681 -0.000000
vn 0.355698 -0.858736 0.368852
vn -0.382683 -0.923880 0.000000
vn 0.382683 -0.923880 0.000000
vn -0.355700 -0.858735 0.368852
vn -0.923880 -0.382683 0.000000
vn -0.382683 -0.923880 0.000000
vn -0.858735 -0.355700 0.368852
vn -0.923880 0.382683 -0.000000
vn -0.923880 -0.382683 0.000000
vn -0.355700 0.858735 0.368851
vn 0.382685 0.923879 -0.000000
vn -0.382684 0.923879 -0.000000
vn 0.355700 0.858735 0.368852
vn 0.923880 0.382683 -0.000000
vn 0.382685 0.923879 -0.000000
vn 0.355700 0.858735 0.368852
vn -0.167503 0.404385 0.899119
vn 0.167502 0.404386 0.899119
vn 0.858735 0.355700 0.368852
vn 0.167502 0.404386 0.899119
vn 0.404386 0.167502 0.899119
vn 0.858735 0.355700 0.368852
vn 0.404384 -0.167501 0.899120
vn 0.858735 -0.355700 0.368853
vn 0.858735 -0.355700 0.368853
vn 0.167502 -0.404384 0.899120
vn 0.355698 -0.858736 0.368852
vn 0.355698 -0.858736 0.368852
vn -0.167503 -0.404387 0.899118
vn -0.355700 -0.858735 0.368852
vn -0.355700 -0.858735 0.368852
vn -0.404385 -0.167502 0.899119
vn -0.858735 -0.355700 0.368852
vn -0.858735 -0.355700 0.368852
vn -0.404385 0.167503 0.899119
vn -0.858735 0.355700 0.368852
vn -0.355700 0.858735 0.368851
vn -0.404385 0.167503 0.899119
vn -0.167503 0.404385 0.899119
vn -0.404385 0.167503 0.899119
vn -0.167503 -0.404387 0.899118
vn -0.167503 0.404385 0.899119
vn 1.000000 0.000000 0.000000
vn 1.000000 0.000000 0.000001
vn 1.000000 0.000000 0.000001
vn 0.167502 0.404386 0.899119
vn 0.404384 -0.167501 0.899120
vn 0.404386 0.167502 0.899119
vn 0.000000 0.000007 1.000000
vn -0.167503 0.404385 0.899119
vn 0.000000 -0.000004 1.000000
vn 0.000000 -0.000007 1.000000
vn 0.167502 -0.404384 0.899120
vn 0.000000 0.000005 1.000000
vn 0.000000 -0.000004 1.000000
vn -0.167503 -0.404387 0.899118
vn 0.000000 -0.000007 1.000000
vn 0.000000 0.000005 1.000000
vn 0.167502 0.404386 0.899119
vn 0.000000 0.000007 1.000000
vn -1.000000 0.000000 0.000000
vn -1.000000 0.000000 0.000001
vn -1.000000 0.000000 0.000000
vn 0.000000 0.382680 0.923881
vn 0.000000 -0.382679 0.923881
vn 0.000000 0.382683 0.923880
vn 0.000000 -1.000000 0.000000
vn 0.000000 -0.923880 0.382683
vn 0.000000 -1.000000 0.000000
vn 0.000000 0.382683 0.923880
vn 0.000000 0.923879 0.382686
vn 0.000000 0.382680 0.923881
vn 0.000000 -0.382683 0.923880
vn 0.000000 -0.923878 0.382686
vn 0.000000 -0.382679 0.923881
vn 0.000000 1.000000 -0.000000
vn 0.000000 0.923880 0.382683
vn 0.000000 1.000000 -0.000000
vn 1.000000 0.000000 0.000000
vn 1.000000 0.000000 0.000001
vn 1.000000 0.000000 0.000000
vn -1.000000 0.000000 0.000000
vn -1.000000 0.000000 0.000000
vn -1.000000 0.000000 0.000000
vn -0.858735 0.355700 0.368852
vn -0.355700 0.858735 0.368851
vn -0.382684 0.923879 -0.000000
vn 0.858735 0.355700 0.368852
vn 0.858735 -0.355700 0.368853
vn 0.923881 -0.382681 -0.000000
vn 0.858735 -0.355700 0.368853
vn 0.355698 -0.858736 0.368852
vn 0.382683 -0.923880 0.000000
vn 0.355698 -0.858736 0.368852
vn -0.355700 -0.858735 0.368852
vn -0.382683 -0.923880 0.000000
vn -0.355700 -0.858735 0.368852
vn -0.858735 -0.355700 0.368852
vn -0.923880 -0.382683 0.000000
vn -0.858735 -0.355700 0.368852
vn -0.858735 0.355700 0.368852
vn -0.923880 0.382683 -0.000000
vn -0.355700 0.858735 0.368851
vn 0.355700 0.858735 0.368852
vn 0.382685 0.923879 -0.000000
vn 0.355700 0.858735 0.368852
vn 0.858735 0.355700 0.368852
vn 0.923880 0.382683 -0.000000
vn 0.355700 0.858735 0.368852
vn -0.355700 0.858735 0.368851
vn -0.167503 0.404385 0.899119
vn 0.858735 0.355700 0.368852
vn 0.355700 0.858735 0.368852
vn 0.167502 0.404386 0.899119
vn 0.858735 0.355700 0.368852
vn 0.404386 0.167502 0.899119
vn 0.404384 -0.167501 0.899120
vn 0.858735 -0.355700 0.368853
vn 0.404384 -0.167501 0.899120
vn 0.167502 -0.404384 0.899120
vn 0.355698 -0.858736 0.368852
vn 0.167502 -0.404384 0.899120
vn -0.167503 -0.404387 0.899118
vn -0.355700 -0.858735 0.368852
vn -0.167503 -0.404387 0.899118
vn -0.404385 -0.167502 0.899119
vn -0.858735 -0.355700 0.368852
vn -0.404385 -0.167502 0.899119
vn -0.404385 0.167503 0.899119
vn -0.355700 0.858735 0.368851
vn -0.858735 0.355700 0.368852
vn -0.404385 0.167503 0.899119
vn -0.404385 0.167503 0.899119
vn -0.404385 -0.167502 0.899119
vn -0.167503 -0.404387 0.899118
vn 1.000000 0.000000 0.000000
vn 1.000000 0.000000 0.000000
vn 1.000000 0.000000 0.000001
vn 0.167502 0.404386 0.899119
vn 0.167502 -0.404384 0.899120
vn 0.404384 -0.167501 0.899120
vn 0.000000 0.000007 1.000000
vn 0.167502 0.404386 0.899119
vn -0.167503 0.404385 0.899119
vn 0.000000 -0.000007 1.000000
vn -0.167503 -0.404387 0.899118
vn 0.167502 -0.404384 0.899120
vn 0.000000 -0.000004 1.000000
vn -0.167503 0.404385 0.899119
vn -0.167503 -0.404387 0.899118
vn 0.000000 0.000005 1.000000
vn 0.167502 -0.404384 0.899120
vn 0.167502 0.404386 0.899119
vn -1.000000 0.000000 0.000000
vn -1.000000 0.000000 0.000000
vn -1.000000 0.000000 0.000001
vn 0.000000 0.382680 0.923881
vn 0.000000 -0.382683 0.923880
vn 0.000000 -0.382679 0.923881
vn 0.000000 -1.000000 0.000000
vn 0.000000 -0.923878 0.382686
vn 0.000000 -0.923880 0.382683
vn 0.000000 0.382683 0.923880
vn 0.000000 0.923880 0.382683
vn 0.000000 0.923879 0.382686
vn 0.000000 -0.382683 0.923880
vn 0.000000 -0.923880 0.382683
vn 0.000000 -0.923878 0.382686
vn 0.000000 1.000000 -0.000000
vn 0.000000 0.923879 0.382686
vn 0.000000 0.923880 0.382683
vn 1.000000 0.000000 0.000000
vn 1.000000 0.000000 0.000000
vn 1.000000 0.000000 0.000001
vn -1.000000 0.000000 0.000000
vn -1.000000 0.000000 0.000000
vn -1.000000 0.000000 0.000000
s off
g polySurface307 polySurface302
usemtl Fridge_lowFBXASC046000SG
f 24/1/1 1/2/2 8/3/3
f 14/4/4 4/5/5 3/6/6
f 16/7/7 5/8/8 4/5/9
f 18/9/10 6/10/11 5/8/12
f 20/11/13 7/12/14 6/10/15
f 22/13/16 8/3/17 7/12/18
f 10/14/19 2/15/20 1/16/21
f 12/17/22 3/6/23 2/15/24
f 12/18/25 25/19/26 26/20/27
f 14/21/28 26/20/29 13/22/30
f 14/21/31 15/23/32 16/24/33
f 16/24/34 27/25/35 18/26/36
f 18/26/37 28/27/38 20/28/39
f 20/28/40 21/29/41 22/30/42
f 22/30/43 23/31/44 24/32/45
f 10/33/46 23/31/47 25/19/48
f 23/31/49 28/27/50 25/19/51
f 31/34/52 33/35/53 34/36/54
f 26/20/55 15/23/56 13/22/57
f 11/37/58 25/19/59 9/38/60
f 19/39/61 27/25/62 17/40/63
f 9/38/64 28/27/65 19/39/66
f 17/40/67 26/20/68 11/37/69
f 35/41/70 29/42/71 30/43/72
f 29/44/73 33/45/74 32/46/75
f 17/47/76 35/48/77 19/49/78
f 32/46/79 30/50/80 29/44/81
f 36/51/82 34/52/83 33/45/84
f 9/53/85 31/54/86 11/55/87
f 11/56/88 34/36/89 17/57/90
f 19/58/91 30/43/92 9/59/93
f 24/1/94 10/60/95 1/2/96
f 14/4/97 16/7/98 4/5/99
f 16/7/100 18/9/101 5/8/102
f 18/9/103 20/11/104 6/10/105
f 20/11/106 22/13/107 7/12/108
f 22/13/109 24/1/110 8/3/111
f 10/14/112 12/17/113 2/15/114
f 12/17/115 14/4/116 3/6/117
f 12/18/118 10/33/119 25/19/120
f 14/21/121 12/18/122 26/20/123
f 14/21/124 13/22/125 15/23/126
f 16/24/127 15/23/128 27/25/129
f 18/26/130 27/25/131 28/27/132
f 20/28/133 28/27/134 21/29/135
f 22/30/136 21/29/137 23/31/138
f 10/33/139 24/32/140 23/31/141
f 23/31/142 21/29/143 28/27/144
f 31/34/145 32/61/146 33/35/147
f 26/20/148 27/25/149 15/23/150
f 11/37/151 26/20/152 25/19/153
f 19/39/154 28/27/155 27/25/156
f 9/38/157 25/19/158 28/27/159
f 17/40/160 27/25/161 26/20/162
f 35/41/163 36/62/164 29/42/165
f 29/44/166 36/51/167 33/45/168
f 17/47/169 34/52/170 35/48/171
f 32/46/172 31/54/173 30/50/174
f 36/51/175 35/48/176 34/52/177
f 9/53/178 30/50/179 31/54/180
f 11/56/181 31/34/182 34/36/183
f 19/58/184 35/41/185 30/43/186
