# This file uses centimeters as units for non-parametric coordinates.

mtllib cuarto.mtl
g default
v 4.547746 0.254533 5.245140
v -4.640298 4.471206 5.245139
v 4.547746 4.471205 0.166608
v -4.640298 4.471205 0.166608
v 4.547746 4.471206 5.245139
v -4.640298 0.254533 5.245140
v -4.640298 0.254532 0.166608
v 4.547746 0.254532 0.166608
v 2.760378 4.471205 0.166608
v 2.760378 0.254532 0.166608
v -4.640298 3.331080 5.245139
v -4.640298 3.331079 0.166608
v 4.547746 3.331079 0.166608
v 4.547746 3.331080 5.245139
v 2.760378 3.331079 0.166608
v 2.760378 0.254532 -1.367712
v 2.760378 3.858041 -1.367712
v 4.547746 0.254532 -3.115373
v 2.032892 0.254532 -3.115373
v 2.032892 0.254532 -1.367712
v 2.032892 3.858041 -1.367712
v 2.760378 3.331079 -0.163764
v 4.547746 3.331079 -0.163764
v 2.760378 0.254532 -0.163764
v 4.547746 0.254532 -0.163764
v 4.547746 3.858041 -3.115373
v 2.032892 3.858041 -3.115373
v 2.760378 3.858041 -0.163764
v 4.547746 3.858041 -0.163764
v -4.856090 2.189693 3.484240
v -4.856090 0.114940 2.791466
v -4.856090 2.189693 2.791466
v 4.763538 2.189693 3.484240
v 4.763538 0.114940 2.791466
v 4.763538 2.189693 2.791466
v -4.856090 1.818257 3.484240
v 4.763538 1.818257 3.484240
v 4.763538 1.818257 4.103068
v -4.856090 1.818257 4.103068
v 4.763538 1.663028 4.103068
v -4.856090 1.663028 4.103068
v 4.763538 1.663028 3.582952
v 4.763538 0.114940 3.582952
v -4.856090 0.114940 3.582952
v -4.856090 1.663028 3.582952
vt 0.514130 0.608848
vt 0.563333 0.389682
vt 0.563333 0.608848
vt 0.322228 0.456888
vt 0.273026 0.776266
vt 0.273026 0.456888
vt 0.327193 0.608851
vt 0.459963 0.389686
vt 0.459963 0.608851
vt 0.322228 0.379754
vt 0.273026 0.379754
vt 0.509165 0.389686
vt 0.509165 0.608851
vt 0.140257 0.776266
vt 0.140257 0.456888
vt 0.696102 0.389682
vt 0.696102 0.608848
vt 0.468831 0.618041
vt 0.341453 0.640782
vt 0.341453 0.618041
vt 0.468831 0.773551
vt 0.341453 0.773551
vt 0.874651 0.273435
vt 0.822695 0.406204
vt 0.822695 0.250694
vt 0.577360 0.773551
vt 0.079616 0.662079
vt 0.002482 0.684820
vt 0.002482 0.662079
vt 0.791300 0.250694
vt 0.888909 0.406204
vt 0.888909 0.273435
vt 0.079616 0.647822
vt 0.002482 0.647822
vt 0.327196 0.640782
vt 0.327196 0.773551
vt 0.079616 0.736777
vt 0.002482 0.812197
vt 0.111011 0.812197
vt 0.874651 0.250694
vt 0.514130 0.389682
vt 0.322228 0.776266
vt 0.327193 0.389686
vt 0.874651 0.406204
vt 0.577360 0.618041
vt 0.079616 0.684820
vt 0.791300 0.406204
vt 0.111011 0.736777
vt 0.094411 0.002483
vt 0.002483 0.428715
vt 0.002482 0.002483
vt 0.125107 0.428715
vt 0.141565 0.002483
vt 0.141565 0.428715
vt 0.094412 0.428715
vt 0.168985 0.428715
vt 0.176424 0.002493
vt 0.176424 0.428725
vt 0.199469 0.428725
vt 0.268063 0.002493
vt 0.268063 0.428725
vt 0.125107 0.002483
vt 0.168984 0.002483
vt 0.199469 0.002493
vn -1.000000 0.000000 0.000000
vn -1.000000 0.000000 0.000000
vn -1.000000 -0.000000 -0.000000
vn 0.000000 0.000000 1.000000
vn 0.000000 0.000000 1.000000
vn 0.000000 0.000000 1.000000
vn 1.000000 0.000000 0.000000
vn 1.000000 0.000000 0.000000
vn 1.000000 0.000000 0.000000
vn 0.000000 0.000000 1.000000
vn 0.000000 0.000000 1.000000
vn 0.000000 0.000000 1.000000
vn 1.000000 0.000000 0.000000
vn 1.000000 0.000000 0.000000
vn 1.000000 0.000000 0.000000
vn 0.000000 0.000000 1.000000
vn 0.000000 0.000000 1.000000
vn 0.000000 0.000000 1.000000
vn -1.000000 -0.000000 -0.000000
vn -1.000000 -0.000000 -0.000000
vn -1.000000 -0.000000 -0.000000
vn -1.000000 0.000000 0.000000
vn -1.000000 0.000000 0.000000
vn -1.000000 0.000000 0.000000
vn -1.000000 0.000000 0.000000
vn -1.000000 0.000000 0.000000
vn -1.000000 0.000000 0.000000
vn 1.000000 0.000000 0.000000
vn 1.000000 0.000000 0.000000
vn 1.000000 0.000000 0.000000
vn 0.000000 0.000000 1.000000
vn 0.000000 0.000000 1.000000
vn 0.000000 0.000000 1.000000
vn 0.000000 -0.000000 -1.000000
vn 0.000000 -0.000000 -1.000000
vn 0.000000 -0.000000 -1.000000
vn 0.000000 -0.000000 -1.000000
vn 0.000000 -0.000000 -1.000000
vn 0.000000 -0.000000 -1.000000
vn 1.000000 0.000000 0.000000
vn 1.000000 0.000000 0.000000
vn 1.000000 0.000000 0.000000
vn 0.000000 -1.000000 0.000000
vn 0.000000 -1.000000 0.000000
vn 0.000000 -1.000000 0.000000
vn -1.000000 0.000000 0.000000
vn -1.000000 0.000000 0.000000
vn -1.000000 -0.000000 -0.000000
vn 0.000000 -1.000000 0.000000
vn 0.000000 -1.000000 0.000000
vn 0.000000 -1.000000 0.000000
vn 0.000000 -1.000000 0.000000
vn 0.000000 -1.000000 0.000000
vn 0.000000 -1.000000 0.000000
vn 1.000000 0.000000 0.000000
vn 1.000000 0.000000 0.000000
vn 1.000000 0.000000 0.000000
vn -1.000000 0.000000 0.000000
vn -1.000000 0.000000 0.000000
vn -1.000000 0.000000 0.000000
vn 0.000000 0.000000 1.000000
vn 0.000000 0.000000 1.000000
vn 0.000000 0.000000 1.000000
vn 1.000000 0.000000 0.000000
vn 1.000000 0.000000 0.000000
vn 1.000000 0.000000 0.000000
vn 0.000000 0.000000 1.000000
vn 0.000000 0.000000 1.000000
vn 0.000000 0.000000 1.000000
vn 1.000000 0.000000 0.000000
vn 1.000000 0.000000 0.000000
vn 1.000000 0.000000 0.000000
vn 0.000000 0.000000 1.000000
vn 0.000000 0.000000 1.000000
vn 0.000000 0.000000 1.000000
vn -1.000000 -0.000000 -0.000000
vn -1.000000 0.000000 0.000000
vn -1.000000 -0.000000 -0.000000
vn -1.000000 0.000000 0.000000
vn -1.000000 0.000000 0.000000
vn -1.000000 0.000000 0.000000
vn 1.000000 0.000000 0.000000
vn 1.000000 0.000000 0.000000
vn 1.000000 0.000000 0.000000
vn 0.000000 0.000000 1.000000
vn 0.000000 0.000000 1.000000
vn 0.000000 0.000000 1.000000
vn 0.000000 -0.000000 -1.000000
vn 0.000000 -0.000000 -1.000000
vn 0.000000 -0.000000 -1.000000
vn 0.000000 -0.000000 -1.000000
vn 0.000000 -0.000000 -1.000000
vn 0.000000 -0.000000 -1.000000
vn 1.000000 0.000000 0.000000
vn 1.000000 0.000000 0.000000
vn 1.000000 0.000000 0.000000
vn 0.000000 -1.000000 0.000000
vn 0.000000 -1.000000 0.000000
vn 0.000000 -1.000000 0.000000
vn -1.000000 0.000000 0.000000
vn -1.000000 0.000000 0.000000
vn -1.000000 0.000000 0.000000
vn 0.000000 -1.000000 0.000000
vn 0.000000 -1.000000 0.000000
vn 0.000000 -1.000000 0.000000
vn 0.000000 -1.000000 0.000000
vn 0.000000 -1.000000 0.000000
vn 0.000000 -1.000000 0.000000
vn 0.000000 -0.000000 -1.000000
vn 0.000000 -0.000000 -1.000000
vn 0.000000 -0.000000 -1.000000
vn 0.000000 0.000000 1.000000
vn 0.000000 0.000000 1.000000
vn 0.000000 0.000000 1.000000
vn 0.000000 1.000000 -0.000000
vn 0.000000 1.000000 -0.000000
vn 0.000000 1.000000 -0.000000
vn 0.000000 0.000000 1.000000
vn 0.000000 0.000000 1.000000
vn 0.000000 0.000000 1.000000
vn 0.000000 1.000000 -0.000000
vn 0.000000 1.000000 -0.000000
vn 0.000000 1.000000 -0.000000
vn 0.000000 0.000000 1.000000
vn 0.000000 0.000000 1.000000
vn 0.000000 0.000000 1.000000
vn 0.000000 -1.000000 0.000000
vn 0.000000 -1.000000 0.000000
vn 0.000000 -1.000000 0.000000
vn 0.000000 -0.000000 -1.000000
vn 0.000000 -0.000000 -1.000000
vn 0.000000 -0.000000 -1.000000
vn 0.000000 0.000000 1.000000
vn 0.000000 0.000000 1.000000
vn 0.000000 0.000000 1.000000
vn 0.000000 1.000000 -0.000000
vn 0.000000 1.000000 -0.000000
vn 0.000000 1.000000 -0.000000
vn 0.000000 0.000000 1.000000
vn 0.000000 0.000000 1.000000
vn 0.000000 0.000000 1.000000
vn 0.000000 1.000000 -0.000000
vn 0.000000 1.000000 -0.000000
vn 0.000000 1.000000 -0.000000
vn 0.000000 0.000000 1.000000
vn 0.000000 0.000000 1.000000
vn 0.000000 0.000000 1.000000
vn 0.000000 -1.000000 0.000000
vn 0.000000 -1.000000 0.000000
vn 0.000000 -1.000000 0.000000
s off
g polySurface251
usemtl Building_Bottom_lowFBXASC046000SG
f 5/1/1 13/2/2 14/3/3
f 9/4/4 12/5/5 15/6/6
f 6/7/7 12/8/8 11/9/9
f 3/10/10 15/6/11 13/11/12
f 11/9/13 4/12/14 2/13/15
f 15/6/16 7/14/17 10/15/18
f 14/3/19 8/16/20 1/17/21
f 26/18/22 23/19/23 29/20/24
f 23/19/25 18/21/26 25/22/27
f 22/23/28 16/24/29 17/25/30
f 26/18/31 19/26/32 18/21/33
f 22/27/34 29/28/35 23/29/36
f 16/24/37 21/30/38 17/25/39
f 10/31/40 22/23/41 15/32/42
f 15/33/43 23/29/44 13/34/45
f 13/35/46 25/22/47 8/36/48
f 29/28/49 17/37/50 26/38/51
f 17/37/52 27/39/53 26/38/54
f 22/23/55 17/25/56 28/40/57
f 5/1/58 3/41/59 13/2/60
f 9/4/61 4/42/62 12/5/63
f 6/7/64 7/43/65 12/8/66
f 3/10/67 9/4/68 15/6/69
f 11/9/70 12/8/71 4/12/72
f 15/6/73 12/5/74 7/14/75
f 14/3/76 13/2/77 8/16/78
f 23/19/79 26/18/80 18/21/81
f 22/23/82 24/44/83 16/24/84
f 26/18/85 27/45/86 19/26/87
f 22/27/88 28/46/89 29/28/90
f 16/24/91 20/47/92 21/30/93
f 10/31/94 24/44/95 22/23/96
f 15/33/97 22/27/98 23/29/99
f 13/35/100 23/19/101 25/22/102
f 29/28/103 28/46/104 17/37/105
f 17/37/106 21/48/107 27/39/108
f 32/49/109 34/50/110 31/51/111
f 33/52/112 36/53/113 37/54/114
f 32/49/115 33/52/116 35/55/117
f 38/56/118 41/57/119 40/58/120
f 36/53/121 38/56/122 37/54/123
f 42/59/124 44/60/125 43/61/126
f 41/57/127 42/59/128 40/58/129
f 32/49/130 35/55/131 34/50/132
f 33/52/133 30/62/134 36/53/135
f 32/49/136 30/62/137 33/52/138
f 38/56/139 39/63/140 41/57/141
f 36/53/142 39/63/143 38/56/144
f 42/59/145 45/64/146 44/60/147
f 41/57/148 45/64/149 42/59/150
