# This file uses centimeters as units for non-parametric coordinates.

mtllib piso.mtl
g default
v -11.945094 -0.117075 3.969800
v -3.978610 -0.117075 3.969800
v -11.945094 0.117075 3.888299
v -3.978610 0.117075 3.888299
v -11.945094 0.117075 -10.058162
v -3.978610 0.117075 -10.058162
v -11.945094 -0.117075 -9.976660
v -3.978610 -0.117075 -9.976660
v -3.969330 -0.117075 3.806883
v 4.234406 -0.117075 3.806883
v -3.969330 0.117075 3.806883
v 4.234406 0.117075 3.806883
v -3.969330 0.117075 -4.995510
v 4.234406 0.117075 -4.995510
v -3.969330 -0.117075 -4.995510
v 4.234406 -0.117075 -4.995510
v 4.218541 -0.117075 3.806883
v 12.058022 -0.117075 3.806883
v 4.218541 0.117075 3.725383
v 12.058022 0.117075 3.725383
v 4.218541 0.117075 -9.926508
v 12.058022 0.117075 -9.926508
v 4.218541 -0.117075 -9.845004
v 12.058022 -0.117075 -9.845004
vt -0.000000 0.000000
vt 1.000000 0.000000
vt 1.000000 0.006852
vt -0.000000 0.006852
vt 1.000000 1.000000
vt -0.000000 1.000000
vt 1.000000 0.993148
vt -0.000000 0.993148
vt -0.000000 -0.000000
vt -0.000000 -0.000000
vt 1.000000 -0.000000
vt 1.000000 -0.000000
vt -0.000000 1.000000
vt 1.000000 1.000000
vt -0.000000 1.000000
vt 1.000000 1.000000
vt 0.000000 0.000000
vt 1.000000 0.000000
vt 1.000000 0.005935
vt 0.000000 0.005935
vt 1.000000 1.000000
vt 0.000000 1.000000
vt 1.000000 0.994065
vt 0.000000 0.994065
vn 0.000000 0.328727 0.944425
vn 0.000000 0.328727 0.944425
vn 0.000000 0.328727 0.944425
vn 0.000000 0.328727 0.944425
vn 0.000000 1.000000 0.000000
vn 0.000000 1.000000 0.000000
vn 0.000000 1.000000 0.000000
vn 0.000000 1.000000 0.000000
vn 0.000000 -0.328732 -0.944423
vn 0.000000 -0.328732 -0.944423
vn 0.000000 -0.328732 -0.944423
vn 0.000000 -0.328732 -0.944423
vn 0.000000 -1.000000 0.000000
vn 0.000000 -1.000000 0.000000
vn 0.000000 -1.000000 0.000000
vn 0.000000 -1.000000 0.000000
vn 1.000000 0.000001 0.000000
vn 1.000000 -0.000002 0.000000
vn 1.000000 0.000001 0.000000
vn 1.000000 -0.000002 0.000000
vn -1.000000 0.000000 0.000000
vn -1.000000 0.000000 0.000000
vn -1.000000 0.000014 0.000000
vn -1.000000 0.000014 0.000000
vn 0.000000 0.000000 1.000000
vn 0.000000 0.000000 1.000000
vn 0.000000 0.000000 1.000000
vn 0.000000 0.000000 1.000000
vn 0.000000 1.000000 0.000000
vn 0.000000 1.000000 0.000000
vn 0.000000 1.000000 0.000000
vn 0.000000 1.000000 0.000000
vn 0.000000 0.000000 -1.000000
vn 0.000000 0.000000 -1.000000
vn 0.000000 0.000000 -1.000000
vn 0.000000 0.000000 -1.000000
vn 0.000000 -1.000000 0.000000
vn 0.000000 -1.000000 0.000000
vn 0.000000 -1.000000 0.000000
vn 0.000000 -1.000000 0.000000
vn 1.000000 0.000000 0.000000
vn 1.000000 0.000000 0.000000
vn 1.000000 0.000000 0.000000
vn 1.000000 0.000000 0.000000
vn -1.000000 0.000000 0.000000
vn -1.000000 0.000000 0.000000
vn -1.000000 0.000000 0.000000
vn -1.000000 0.000000 0.000000
vn 0.000000 0.328727 0.944425
vn 0.000000 0.328727 0.944425
vn 0.000000 0.328727 0.944425
vn 0.000000 0.328727 0.944425
vn 0.000000 1.000000 0.000000
vn 0.000000 1.000000 0.000000
vn 0.000000 1.000000 0.000000
vn 0.000000 1.000000 0.000000
vn 0.000000 -0.328739 -0.944421
vn 0.000000 -0.328739 -0.944421
vn 0.000000 -0.328739 -0.944421
vn 0.000000 -0.328739 -0.944421
vn 0.000000 -1.000000 0.000000
vn 0.000000 -1.000000 0.000000
vn 0.000000 -1.000000 0.000000
vn 0.000000 -1.000000 0.000000
vn 1.000000 0.000004 0.000000
vn 1.000000 0.000000 0.000000
vn 1.000000 0.000004 0.000000
vn 1.000000 0.000000 0.000000
vn -1.000000 0.000000 0.000000
vn -1.000000 0.000000 0.000000
vn -1.000000 0.000002 0.000000
vn -1.000000 0.000002 0.000000
s 1
g pCube12
usemtl lambert9SG
f 3/4/1 1/1/2 4/3/3
f 4/3/3 1/1/2 2/2/4
s 2
f 5/6/5 3/4/6 6/5/7
f 6/5/7 3/4/6 4/3/8
s 3
f 7/8/9 5/6/10 8/7/11
f 8/7/11 5/6/10 6/5/12
s 4
f 1/1/13 7/8/14 2/2/15
f 2/2/15 7/8/14 8/7/16
s 5
f 2/2/17 8/7/18 4/3/19
f 4/3/19 8/7/18 6/5/20
s 6
f 1/1/21 3/4/22 7/8/23
f 7/8/23 3/4/22 5/6/24
s 7
f 12/12/25 11/9/26 10/11/27
f 10/11/27 11/9/26 9/10/28
s 8
f 14/14/29 13/13/30 12/12/31
f 12/12/31 13/13/30 11/9/32
s 9
f 16/16/33 15/15/34 14/14/35
f 14/14/35 15/15/34 13/13/36
s 10
f 10/11/37 9/10/38 16/16/39
f 16/16/39 9/10/38 15/15/40
s 11
f 14/14/41 12/12/42 16/16/43
f 16/16/43 12/12/42 10/11/44
s 12
f 11/9/45 13/13/46 9/10/47
f 9/10/47 13/13/46 15/15/48
s 13
f 19/20/49 17/17/50 20/19/51
f 20/19/51 17/17/50 18/18/52
s 14
f 21/22/53 19/20/54 22/21/55
f 22/21/55 19/20/54 20/19/56
s 15
f 23/24/57 21/22/58 24/23/59
f 24/23/59 21/22/58 22/21/60
s 16
f 17/17/61 23/24/62 18/18/63
f 18/18/63 23/24/62 24/23/64
s 17
f 18/18/65 24/23/66 20/19/67
f 20/19/67 24/23/66 22/21/68
s 18
f 17/17/69 19/20/70 23/24/71
f 23/24/71 19/20/70 21/22/72
g default
v -11.945094 -0.117075 3.969800
v -3.978610 -0.117075 3.969800
v -11.945094 0.117075 3.888299
v -3.978610 0.117075 3.888299
v -11.945094 0.117075 -10.058162
v -3.978610 0.117075 -10.058162
v -11.945094 -0.117075 -9.976660
v -3.978610 -0.117075 -9.976660
v -3.969330 -0.117075 3.806883
v 4.234406 -0.117075 3.806883
v -3.969330 0.117075 3.806883
v 4.234406 0.117075 3.806883
v -3.969330 0.117075 -4.995510
v 4.234406 0.117075 -4.995510
v -3.969330 -0.117075 -4.995510
v 4.234406 -0.117075 -4.995510
v 4.218541 -0.117075 3.806883
v 12.058022 -0.117075 3.806883
v 4.218541 0.117075 3.725383
v 12.058022 0.117075 3.725383
v 4.218541 0.117075 -9.926508
v 12.058022 0.117075 -9.926508
v 4.218541 -0.117075 -9.845004
v 12.058022 -0.117075 -9.845004
vt -0.000000 0.000000
vt 1.000000 0.000000
vt 1.000000 0.006852
vt -0.000000 0.006852
vt 1.000000 1.000000
vt -0.000000 1.000000
vt 1.000000 0.993148
vt -0.000000 0.993148
vt -0.000000 -0.000000
vt -0.000000 -0.000000
vt 1.000000 -0.000000
vt 1.000000 -0.000000
vt -0.000000 1.000000
vt 1.000000 1.000000
vt -0.000000 1.000000
vt 1.000000 1.000000
vt 0.000000 0.000000
vt 1.000000 0.000000
vt 1.000000 0.005935
vt 0.000000 0.005935
vt 1.000000 1.000000
vt 0.000000 1.000000
vt 1.000000 0.994065
vt 0.000000 0.994065
vn 0.000000 0.328727 0.944425
vn 0.000000 0.328727 0.944425
vn 0.000000 0.328727 0.944425
vn 0.000000 0.328727 0.944425
vn 0.000000 1.000000 0.000000
vn 0.000000 1.000000 0.000000
vn 0.000000 1.000000 0.000000
vn 0.000000 1.000000 0.000000
vn 0.000000 -0.328732 -0.944423
vn 0.000000 -0.328732 -0.944423
vn 0.000000 -0.328732 -0.944423
vn 0.000000 -0.328732 -0.944423
vn 0.000000 -1.000000 0.000000
vn 0.000000 -1.000000 0.000000
vn 0.000000 -1.000000 0.000000
vn 0.000000 -1.000000 0.000000
vn 1.000000 0.000001 0.000000
vn 1.000000 -0.000002 0.000000
vn 1.000000 0.000001 0.000000
vn 1.000000 -0.000002 0.000000
vn -1.000000 0.000000 0.000000
vn -1.000000 0.000000 0.000000
vn -1.000000 0.000014 0.000000
vn -1.000000 0.000014 0.000000
vn 0.000000 0.000000 1.000000
vn 0.000000 0.000000 1.000000
vn 0.000000 0.000000 1.000000
vn 0.000000 0.000000 1.000000
vn 0.000000 1.000000 0.000000
vn 0.000000 1.000000 0.000000
vn 0.000000 1.000000 0.000000
vn 0.000000 1.000000 0.000000
vn 0.000000 0.000000 -1.000000
vn 0.000000 0.000000 -1.000000
vn 0.000000 0.000000 -1.000000
vn 0.000000 0.000000 -1.000000
vn 0.000000 -1.000000 0.000000
vn 0.000000 -1.000000 0.000000
vn 0.000000 -1.000000 0.000000
vn 0.000000 -1.000000 0.000000
vn 1.000000 0.000000 0.000000
vn 1.000000 0.000000 0.000000
vn 1.000000 0.000000 0.000000
vn 1.000000 0.000000 0.000000
vn -1.000000 0.000000 0.000000
vn -1.000000 0.000000 0.000000
vn -1.000000 0.000000 0.000000
vn -1.000000 0.000000 0.000000
vn 0.000000 0.328727 0.944425
vn 0.000000 0.328727 0.944425
vn 0.000000 0.328727 0.944425
vn 0.000000 0.328727 0.944425
vn 0.000000 1.000000 0.000000
vn 0.000000 1.000000 0.000000
vn 0.000000 1.000000 0.000000
vn 0.000000 1.000000 0.000000
vn 0.000000 -0.328739 -0.944421
vn 0.000000 -0.328739 -0.944421
vn 0.000000 -0.328739 -0.944421
vn 0.000000 -0.328739 -0.944421
vn 0.000000 -1.000000 0.000000
vn 0.000000 -1.000000 0.000000
vn 0.000000 -1.000000 0.000000
vn 0.000000 -1.000000 0.000000
vn 1.000000 0.000004 0.000000
vn 1.000000 0.000000 0.000000
vn 1.000000 0.000004 0.000000
vn 1.000000 0.000000 0.000000
vn -1.000000 0.000000 0.000000
vn -1.000000 0.000000 0.000000
vn -1.000000 0.000002 0.000000
vn -1.000000 0.000002 0.000000
s 1
g pCube12
f 27/28/73 25/25/74 28/27/75
f 28/27/75 25/25/74 26/26/76
s 2
f 29/30/77 27/28/78 30/29/79
f 30/29/79 27/28/78 28/27/80
s 3
f 31/32/81 29/30/82 32/31/83
f 32/31/83 29/30/82 30/29/84
s 4
f 25/25/85 31/32/86 26/26/87
f 26/26/87 31/32/86 32/31/88
s 5
f 26/26/89 32/31/90 28/27/91
f 28/27/91 32/31/90 30/29/92
s 6
f 25/25/93 27/28/94 31/32/95
f 31/32/95 27/28/94 29/30/96
s 7
f 36/36/97 35/33/98 34/35/99
f 34/35/99 35/33/98 33/34/100
s 8
f 38/38/101 37/37/102 36/36/103
f 36/36/103 37/37/102 35/33/104
s 9
f 40/40/105 39/39/106 38/38/107
f 38/38/107 39/39/106 37/37/108
s 10
f 34/35/109 33/34/110 40/40/111
f 40/40/111 33/34/110 39/39/112
s 11
f 38/38/113 36/36/114 40/40/115
f 40/40/115 36/36/114 34/35/116
s 12
f 35/33/117 37/37/118 33/34/119
f 33/34/119 37/37/118 39/39/120
s 13
f 43/44/121 41/41/122 44/43/123
f 44/43/123 41/41/122 42/42/124
s 14
f 45/46/125 43/44/126 46/45/127
f 46/45/127 43/44/126 44/43/128
s 15
f 47/48/129 45/46/130 48/47/131
f 48/47/131 45/46/130 46/45/132
s 16
f 41/41/133 47/48/134 42/42/135
f 42/42/135 47/48/134 48/47/136
s 17
f 42/42/137 48/47/138 44/43/139
f 44/43/139 48/47/138 46/45/140
s 18
f 41/41/141 43/44/142 47/48/143
f 47/48/143 43/44/142 45/46/144
