# This file uses centimeters as units for non-parametric coordinates.

mtllib refri.mtl
g default
v -2.815183 0.268356 0.178893
v -2.942997 2.907859 0.178892
v -2.815183 2.780045 0.178892
v -2.852619 2.870423 0.178892
v -2.815183 0.268357 0.976692
v -2.824429 0.277603 0.991691
v -2.815183 2.780045 0.976692
v -2.828008 2.777494 0.991691
v -2.942997 2.907859 0.976692
v -2.945548 2.895034 0.991691
v -2.852619 2.870423 0.976692
v -2.861865 2.861176 0.991691
v -4.552274 0.268356 0.178893
v -4.424460 2.907859 0.178892
v -4.552274 2.780045 0.178892
v -4.514838 2.870423 0.178892
v -4.552274 0.268357 0.976692
v -4.543027 0.277603 0.991691
v -4.552274 2.780045 0.976692
v -4.539448 2.777494 0.991691
v -4.424460 2.907859 0.976692
v -4.421909 2.895034 0.991691
v -4.514838 2.870423 0.976692
v -4.505591 2.861176 0.991691
vt 0.757852 0.871138
vt 0.744457 0.812346
vt 0.752130 0.811642
vt 0.750410 0.871574
vt 0.736489 0.813169
vt 0.851707 0.871123
vt 0.757891 0.872757
vt 0.551039 0.815596
vt 0.606908 0.639708
vt 0.606908 0.815596
vt 0.600890 0.823889
vt 0.479016 0.821762
vt 0.599789 0.821754
vt 0.858234 0.814653
vt 0.750657 0.873108
vt 0.743159 0.873555
vt 0.547981 0.641312
vt 0.547997 0.815441
vt 0.126001 0.648783
vt 0.116916 0.639698
vt 0.123340 0.642359
vt 0.865506 0.815461
vt 0.873059 0.816385
vt 0.858789 0.871623
vt 0.484003 0.639702
vt 0.539864 0.815566
vt 0.484003 0.815566
vt 0.858534 0.873076
vt 0.851666 0.872666
vt 0.865646 0.873617
vt 0.865051 0.874991
vt 0.542922 0.640371
vt 0.539864 0.639701
vt 0.600890 0.880168
vt 0.478351 0.823889
vt 0.011614 0.639698
vt 0.002529 0.648783
vt 0.005190 0.642359
vt 0.002529 0.827313
vt 0.126001 0.827313
vt 0.551039 0.639708
vt 0.743762 0.875012
vt 0.542925 0.815203
vt 0.478351 0.880168
vn 0.182487 0.923849 0.336455
vn 0.707108 0.707106 -0.000000
vn 0.195091 0.980785 -0.000000
vn 0.668582 0.668582 0.325571
vn 0.980785 0.195090 -0.000000
vn 0.707108 0.707106 -0.000000
vn -0.182487 0.923848 0.336457
vn 0.143726 0.739930 0.657150
vn 0.182487 0.923849 0.336455
vn 0.923854 0.182749 0.336298
vn 1.000000 0.000000 0.000000
vn 0.980785 0.195090 -0.000000
vn 0.000000 -0.974853 0.222849
vn 0.000000 -0.851240 0.524776
vn 0.000000 -0.851242 0.524774
vn -0.182487 0.923848 0.336457
vn 0.195091 0.980785 -0.000000
vn -0.195091 0.980785 -0.000000
vn 0.531265 0.531264 0.659937
vn 0.182487 0.923849 0.336455
vn 0.143726 0.739930 0.657150
vn 0.531265 0.531264 0.659937
vn 0.923854 0.182749 0.336298
vn 0.668582 0.668582 0.325571
vn 0.850926 0.000004 0.525286
vn 0.923854 0.182749 0.336298
vn 0.739816 0.144304 0.657152
vn 0.000000 -0.000000 -1.000000
vn 0.000000 -0.000000 -1.000000
vn 0.000000 -0.000000 -1.000000
vn -0.707108 0.707106 -0.000000
vn -0.182487 0.923848 0.336457
vn -0.195091 0.980785 -0.000000
vn -0.980785 0.195090 -0.000000
vn -0.668582 0.668582 0.325571
vn -0.707108 0.707106 -0.000000
vn -1.000000 0.000000 0.000000
vn -0.923854 0.182748 0.336298
vn -0.980785 0.195090 -0.000000
vn -0.182487 0.923848 0.336457
vn -0.531265 0.531264 0.659937
vn -0.143726 0.739928 0.657153
vn -0.531265 0.531264 0.659937
vn -0.923854 0.182748 0.336298
vn -0.739816 0.144304 0.657152
vn -0.850926 0.000004 0.525286
vn -0.923854 0.182748 0.336298
vn -0.974852 0.000000 0.222853
vn 0.000000 -1.000000 0.000000
vn 0.000000 -0.974853 0.222851
vn 0.000000 -0.974853 0.222849
vn 0.000000 -0.000000 -1.000000
vn 0.000000 -0.000000 -1.000000
vn 0.000000 -0.000000 -1.000000
vn 0.000000 -0.000000 -1.000000
vn 0.000000 -0.000000 -1.000000
vn 0.000000 -0.000000 -1.000000
vn 0.000000 -0.000000 -1.000000
vn 0.000000 -0.000000 -1.000000
vn 0.000000 -0.000000 -1.000000
vn 0.182487 0.923849 0.336455
vn 0.668582 0.668582 0.325571
vn 0.707108 0.707106 -0.000000
vn 0.668582 0.668582 0.325571
vn 0.923854 0.182749 0.336298
vn 0.980785 0.195090 -0.000000
vn -0.182487 0.923848 0.336457
vn -0.143726 0.739928 0.657153
vn 0.143726 0.739930 0.657150
vn 0.923854 0.182749 0.336298
vn 0.974852 0.000000 0.222853
vn 1.000000 0.000000 0.000000
vn 0.000000 -0.974853 0.222849
vn 0.000000 -0.974853 0.222851
vn 0.000000 -0.851240 0.524776
vn -0.182487 0.923848 0.336457
vn 0.182487 0.923849 0.336455
vn 0.195091 0.980785 -0.000000
vn 0.531265 0.531264 0.659937
vn 0.668582 0.668582 0.325571
vn 0.182487 0.923849 0.336455
vn 0.531265 0.531264 0.659937
vn 0.739816 0.144304 0.657152
vn 0.923854 0.182749 0.336298
vn 0.850926 0.000004 0.525286
vn 0.974852 0.000000 0.222853
vn 0.923854 0.182749 0.336298
vn -0.707108 0.707106 -0.000000
vn -0.668582 0.668582 0.325571
vn -0.182487 0.923848 0.336457
vn -0.980785 0.195090 -0.000000
vn -0.923854 0.182748 0.336298
vn -0.668582 0.668582 0.325571
vn -1.000000 0.000000 0.000000
vn -0.974852 0.000000 0.222853
vn -0.923854 0.182748 0.336298
vn -0.182487 0.923848 0.336457
vn -0.668582 0.668582 0.325571
vn -0.531265 0.531264 0.659937
vn -0.531265 0.531264 0.659937
vn -0.668582 0.668582 0.325571
vn -0.923854 0.182748 0.336298
vn -0.850926 0.000004 0.525286
vn -0.739816 0.144304 0.657152
vn -0.923854 0.182748 0.336298
vn 0.000000 -1.000000 0.000000
vn 0.000000 -1.000000 0.000000
vn 0.000000 -0.974853 0.222851
vn 0.000000 -0.000000 -1.000000
vn 0.000000 -0.000000 -1.000000
vn 0.000000 -0.000000 -1.000000
vn 0.000000 -0.000000 -1.000000
vn 0.000000 -0.000000 -1.000000
vn 0.000000 -0.000000 -1.000000
s off
g polySurface213 polySurface75
usemtl Fridge_lowFBXASC046000SG
f 9/1/1 4/2/2 2/3/3
f 11/4/4 3/5/5 4/2/6
f 21/6/7 10/7/8 9/1/9
f 7/8/10 1/9/11 3/10/12
f 17/11/13 6/12/14 18/13/15
f 21/6/16 2/3/17 14/14/18
f 12/15/19 9/1/20 10/7/21
f 12/15/22 7/16/23 11/4/24
f 6/17/25 7/8/26 8/18/27
f 3/19/28 2/20/29 4/21/30
f 16/22/31 21/6/32 14/14/33
f 15/23/34 23/24/35 16/22/36
f 13/25/37 19/26/38 15/27/39
f 21/6/40 24/28/41 22/29/42
f 24/28/43 19/30/44 20/31/45
f 18/32/46 19/26/47 17/33/48
f 13/34/49 5/35/50 17/11/51
f 14/36/52 15/37/53 16/38/54
f 15/37/55 2/20/56 3/19/57
f 13/39/58 3/19/59 1/40/60
f 9/1/61 11/4/62 4/2/63
f 11/4/64 7/16/65 3/5/66
f 21/6/67 22/29/68 10/7/69
f 7/8/70 5/41/71 1/9/72
f 17/11/73 5/35/74 6/12/75
f 21/6/76 9/1/77 2/3/78
f 12/15/79 11/4/80 9/1/81
f 12/15/82 8/42/83 7/16/84
f 6/17/85 5/41/86 7/8/87
f 16/22/88 23/24/89 21/6/90
f 15/23/91 19/30/92 23/24/93
f 13/25/94 17/33/95 19/26/96
f 21/6/97 23/24/98 24/28/99
f 24/28/100 23/24/101 19/30/102
f 18/32/103 20/43/104 19/26/105
f 13/34/106 1/44/107 5/35/108
f 15/37/109 14/36/110 2/20/111
f 13/39/112 15/37/113 3/19/114
