# This file uses centimeters as units for non-parametric coordinates.

mtllib techo_entrada.mtl
g default
v -4.300554 0.019102 0.722451
v -3.639807 0.026542 1.893338
v -2.625596 0.031518 2.814473
v -1.357188 0.033545 3.395693
v 0.041256 0.032427 3.580097
v 1.432848 0.028274 3.349630
v 2.681362 0.021490 2.726875
v 3.666965 0.013786 1.916191
v 4.026270 0.004426 0.729039
v -4.093219 3.066010 0.829872
v -3.673296 3.072924 1.871590
v -2.620209 3.077827 2.792082
v -1.351801 3.079856 3.373302
v 0.046643 3.078739 3.557706
v 1.438233 3.074586 3.327248
v 2.686750 3.067801 2.704484
v 3.670164 3.059129 1.761364
v 4.042100 3.050863 0.726281
v -0.028760 0.001401 -0.658091
v -1.355179 1.169238 3.387345
v 0.043249 1.159340 3.571814
v 1.434812 1.138833 3.341476
v -4.022471 0.018807 0.749156
v -4.077750 3.065378 0.747564
v 2.007543 3.055308 0.841210
v 0.989747 3.057098 0.839909
v 0.430849 3.058082 0.839197
v 0.001723 3.058836 0.838650
v -0.421554 3.059581 0.838108
v -0.955841 3.060520 0.837424
v -1.921296 3.062224 0.836887
v -4.035332 8.406149 0.951257
v 4.113637 8.406149 0.951257
v -4.035332 8.520832 0.951257
v 4.113637 8.520832 0.951257
v -4.035332 8.520832 -4.996903
v 4.113637 8.520832 -4.996903
v -4.035332 8.406149 -4.996903
v 4.113637 8.406149 -4.996903
vt 0.000000 0.001631
vt 0.023731 1.000000
vt 0.976270 0.000000
vt 1.000000 0.998369
vt 0.962905 -0.000000
vt 0.000000 0.000665
vt 1.000000 0.999334
vt 0.013829 0.373226
vt 0.037095 1.000000
vt 0.000000 0.000000
vt 0.071070 0.999418
vt 0.929256 0.005153
vt 1.000000 1.000000
vt 0.941824 0.000000
vt 1.000000 0.997859
vt 0.000000 0.010571
vt 0.057684 1.000000
vt 0.965294 -0.000000
vt 1.000000 0.997778
vt -0.000000 0.002222
vt 0.012652 0.365971
vt 0.034706 1.000000
vt 0.306366 0.000000
vt 0.721838 0.011606
vt 0.278162 0.987057
vt 0.721838 1.000000
vt 0.298442 0.018407
vt 0.701558 0.000000
vt 0.383129 1.000000
vt 0.701558 0.985489
vt 0.351397 0.204534
vt 0.500000 0.156250
vt 0.357657 0.216819
vt 0.373591 0.248091
vt 0.408159 0.282659
vt 0.451716 0.304853
vt 0.500000 0.312500
vt 0.591841 0.282659
vt 0.548284 0.304853
vt 0.626409 0.248091
vt 0.648603 0.204534
vt 0.563680 0.484259
vt 0.000000 0.485698
vt 0.153993 0.000000
vt 0.039102 0.362369
vt 0.000000 0.301240
vt 0.280332 -0.000000
vt 0.484259 0.639621
vt 0.740369 0.639235
vt 0.000000 0.159718
vt 0.487158 -0.000000
vt 0.639235 0.696856
vt 0.844439 0.696668
vt 0.000000 0.048230
vt 1.000000 -0.000000
vt 0.665201 0.711298
vt 0.967879 0.711156
vt 1.000000 0.060275
vt 0.307523 0.711013
vt 0.043419 -0.000000
vt 0.012541 0.711156
vt 1.000000 0.173328
vt 0.372241 0.692279
vt 0.538146 0.000000
vt 0.165492 0.692477
vt 1.000000 0.321225
vt 0.549047 0.627321
vt 0.733289 -0.000000
vt 0.272960 0.627759
vt 0.903859 0.000000
vt 1.000000 0.449651
vt 0.496261 0.450953
vt 0.680384 0.998421
vt 0.717959 0.000687
vt 0.019122 1.000000
vt 0.000000 0.002436
vt 0.375000 0.000000
vt 0.625000 0.000000
vt 0.625000 0.250000
vt 0.375000 0.250000
vt 0.000000 0.000000
vt 1.000000 0.000000
vt 1.000000 1.000000
vt 0.000000 1.000000
vt 0.375000 0.500000
vt 0.625000 0.500000
vt 0.625000 0.750000
vt 0.375000 0.750000
vt 0.000000 1.000000
vt 1.000000 1.000000
vt 1.000000 0.000000
vt 0.000000 0.000000
vt 0.875000 0.000000
vt 0.875000 0.250000
vt 0.125000 0.000000
vt 0.125000 0.250000
vn -0.570093 0.007047 0.821550
vn -0.560401 0.003506 0.828214
vn -0.825702 -0.001556 0.564105
vn -0.816501 -0.008113 0.577287
vn -0.334192 0.007518 0.942475
vn -0.416573 0.007418 0.909072
vn -0.275937 0.007552 0.961146
vn 0.017738 0.007318 0.999816
vn 0.016720 0.007319 0.999833
vn 0.365032 0.006197 0.930974
vn 0.307896 0.006449 0.951398
vn 0.446370 0.005781 0.894830
vn 0.555031 0.005132 0.831814
vn 0.580420 0.018464 0.814108
vn 0.830511 0.014067 0.556825
vn 0.833274 0.019909 0.552502
vn 0.954076 0.010042 0.299398
vn 0.941067 -0.004584 0.338190
vn -0.001767 -0.999972 0.007354
vn -0.001768 -0.999971 0.007350
vn -0.001768 -0.999971 0.007352
vn -0.001769 -0.999971 0.007350
vn -0.001768 -0.999971 0.007351
vn -0.001769 -0.999971 0.007350
vn -0.001768 -0.999971 0.007350
vn -0.001768 -0.999972 0.007351
vn -0.001767 -0.999972 0.007350
vn -0.001769 -0.999972 0.007351
vn -0.001768 -0.999972 0.007350
vn 0.001768 0.999972 -0.007348
vn 0.001767 0.999971 -0.007349
vn 0.001767 0.999972 -0.007349
vn -0.001758 -0.999972 0.007344
vn 0.001768 0.999972 -0.007349
vn 0.001768 0.999972 -0.007349
vn 0.001768 0.999971 -0.007349
vn 0.001768 0.999972 -0.007349
vn 0.001768 0.999971 -0.007349
vn 0.001768 0.999971 -0.007349
vn 0.001768 0.999972 -0.007349
vn 0.001768 0.999971 -0.007349
vn 0.001769 0.999971 -0.007349
vn 0.001769 0.999972 -0.007349
vn 0.001769 0.999971 -0.007350
vn 0.001769 0.999971 -0.007349
vn 0.001769 0.999971 -0.007350
vn -0.940769 -0.016893 0.338627
vn -0.946587 -0.010223 0.322287
vn 0.000000 0.000000 1.000000
vn 0.000000 0.000000 1.000000
vn 0.000000 0.000000 1.000000
vn 0.000000 0.000000 1.000000
vn 0.000000 1.000000 0.000000
vn 0.000000 1.000000 0.000000
vn 0.000000 1.000000 0.000000
vn 0.000000 1.000000 0.000000
vn 0.000000 0.000000 -1.000000
vn 0.000000 0.000000 -1.000000
vn 0.000000 0.000000 -1.000000
vn 0.000000 0.000000 -1.000000
vn 0.000000 -1.000000 0.000000
vn 0.000000 -1.000000 0.000000
vn 0.000000 -1.000000 0.000000
vn 0.000000 -1.000000 0.000000
vn 1.000000 0.000000 0.000000
vn 1.000000 0.000000 0.000000
vn 1.000000 0.000000 0.000000
vn 1.000000 0.000000 0.000000
vn -1.000000 0.000000 0.000000
vn -1.000000 0.000000 0.000000
vn -1.000000 0.000000 0.000000
vn -1.000000 0.000000 0.000000
s 1
g polySurface315
usemtl boxwood_plant05:lambert1SG
f 3/1/1 12/2/2 2/3/3
f 2/3/3 12/2/2 11/4/4
f 12/7/2 3/5/1 20/8/5
f 20/8/5 3/5/1 4/6/6
f 20/8/5 13/9/7 12/7/2
f 21/10/8 14/11/9 20/12/5
f 20/12/5 14/11/9 13/13/7
f 22/14/10 15/15/11 21/16/8
f 21/16/8 15/15/11 14/17/9
f 6/20/12 7/18/13 22/21/10
f 22/21/10 7/18/13 16/19/14
f 16/19/14 15/22/11 22/21/10
f 7/23/13 8/24/15 16/25/14
f 16/25/14 8/24/15 17/26/16
f 8/27/15 9/28/17 17/29/16
f 17/29/16 9/28/17 18/30/18
s 5
f 1/31/19 19/32/20 23/33/21
f 3/35/22 2/34/23 19/32/20
f 2/34/23 23/33/21 19/32/20
f 3/35/22 19/32/20 4/36/24
f 4/36/24 19/32/20 5/37/25
f 7/38/26 6/39/27 19/32/20
f 19/32/20 6/39/27 5/37/25
f 7/38/26 19/32/20 8/40/28
f 8/40/28 19/32/20 9/41/29
s 6
f 31/42/30 10/43/31 11/44/32
f 10/43/31 24/45/33 11/44/32
f 11/46/32 12/47/34 31/48/30
f 31/48/30 12/47/34 30/49/35
f 12/50/34 13/51/36 30/52/35
f 30/52/35 13/51/36 29/53/37
f 13/54/36 14/55/38 29/56/37
f 29/56/37 14/55/38 28/57/39
f 15/58/40 27/59/41 14/60/38
f 14/60/38 27/59/41 28/61/39
f 16/62/42 26/63/43 15/64/40
f 15/64/40 26/63/43 27/65/41
f 17/66/44 25/67/45 16/68/42
f 16/68/42 25/67/45 26/69/43
f 17/70/44 18/71/46 25/72/45
s 1
f 24/73/47 23/74/48 11/75/4
f 11/75/4 23/74/48 2/76/3
s 10
usemtl initialShadingGroup
f 32/77/49 33/78/50 34/80/51
f 34/80/51 33/78/50 35/79/52
s 11
usemtl boxwood_plant05:lambert1SG
f 34/81/53 35/82/54 36/84/55
f 36/84/55 35/82/54 37/83/56
s 12
usemtl initialShadingGroup
f 36/85/57 37/86/58 38/88/59
f 38/88/59 37/86/58 39/87/60
s 13
usemtl boxwood_plant05:lambert1SG
f 38/89/61 39/90/62 32/92/63
f 32/92/63 39/90/62 33/91/64
s 14
usemtl initialShadingGroup
f 33/78/65 39/93/66 35/79/67
f 35/79/67 39/93/66 37/94/68
s 15
f 38/95/69 32/77/70 36/96/71
f 36/96/71 32/77/70 34/80/72
g default
v -4.300554 0.019102 0.722451
v -3.639807 0.026542 1.893338
v -2.625596 0.031518 2.814473
v -1.357188 0.033545 3.395693
v 0.041256 0.032427 3.580097
v 1.432848 0.028274 3.349630
v 2.681362 0.021490 2.726875
v 3.666965 0.013786 1.916191
v 4.026270 0.004426 0.729039
v -4.093219 3.066010 0.829872
v -3.673296 3.072924 1.871590
v -2.620209 3.077827 2.792082
v -1.351801 3.079856 3.373302
v 0.046643 3.078739 3.557706
v 1.438233 3.074586 3.327248
v 2.686750 3.067801 2.704484
v 3.670164 3.059129 1.761364
v 4.042100 3.050863 0.726281
v -0.028760 0.001401 -0.658091
v -1.355179 1.169238 3.387345
v 0.043249 1.159340 3.571814
v 1.434812 1.138833 3.341476
v -4.022471 0.018807 0.749156
v -4.077750 3.065378 0.747564
v 2.007543 3.055308 0.841210
v 0.989747 3.057098 0.839909
v 0.430849 3.058082 0.839197
v 0.001723 3.058836 0.838650
v -0.421554 3.059581 0.838108
v -0.955841 3.060520 0.837424
v -1.921296 3.062224 0.836887
v -4.035332 8.406149 0.951257
v 4.113637 8.406149 0.951257
v -4.035332 8.520832 0.951257
v 4.113637 8.520832 0.951257
v -4.035332 8.520832 -4.996903
v 4.113637 8.520832 -4.996903
v -4.035332 8.406149 -4.996903
v 4.113637 8.406149 -4.996903
vt 0.000000 0.001631
vt 0.023731 1.000000
vt 0.976270 0.000000
vt 1.000000 0.998369
vt 0.962905 -0.000000
vt 0.000000 0.000665
vt 1.000000 0.999334
vt 0.013829 0.373226
vt 0.037095 1.000000
vt 0.000000 0.000000
vt 0.071070 0.999418
vt 0.929256 0.005153
vt 1.000000 1.000000
vt 0.941824 0.000000
vt 1.000000 0.997859
vt 0.000000 0.010571
vt 0.057684 1.000000
vt 0.965294 -0.000000
vt 1.000000 0.997778
vt -0.000000 0.002222
vt 0.012652 0.365971
vt 0.034706 1.000000
vt 0.306366 0.000000
vt 0.721838 0.011606
vt 0.278162 0.987057
vt 0.721838 1.000000
vt 0.298442 0.018407
vt 0.701558 0.000000
vt 0.383129 1.000000
vt 0.701558 0.985489
vt 0.351397 0.204534
vt 0.500000 0.156250
vt 0.357657 0.216819
vt 0.373591 0.248091
vt 0.408159 0.282659
vt 0.451716 0.304853
vt 0.500000 0.312500
vt 0.591841 0.282659
vt 0.548284 0.304853
vt 0.626409 0.248091
vt 0.648603 0.204534
vt 0.563680 0.484259
vt 0.000000 0.485698
vt 0.153993 0.000000
vt 0.039102 0.362369
vt 0.000000 0.301240
vt 0.280332 -0.000000
vt 0.484259 0.639621
vt 0.740369 0.639235
vt 0.000000 0.159718
vt 0.487158 -0.000000
vt 0.639235 0.696856
vt 0.844439 0.696668
vt 0.000000 0.048230
vt 1.000000 -0.000000
vt 0.665201 0.711298
vt 0.967879 0.711156
vt 1.000000 0.060275
vt 0.307523 0.711013
vt 0.043419 -0.000000
vt 0.012541 0.711156
vt 1.000000 0.173328
vt 0.372241 0.692279
vt 0.538146 0.000000
vt 0.165492 0.692477
vt 1.000000 0.321225
vt 0.549047 0.627321
vt 0.733289 -0.000000
vt 0.272960 0.627759
vt 0.903859 0.000000
vt 1.000000 0.449651
vt 0.496261 0.450953
vt 0.680384 0.998421
vt 0.717959 0.000687
vt 0.019122 1.000000
vt 0.000000 0.002436
vt 0.375000 0.000000
vt 0.625000 0.000000
vt 0.625000 0.250000
vt 0.375000 0.250000
vt 0.000000 0.000000
vt 1.000000 0.000000
vt 1.000000 1.000000
vt 0.000000 1.000000
vt 0.375000 0.500000
vt 0.625000 0.500000
vt 0.625000 0.750000
vt 0.375000 0.750000
vt 0.000000 1.000000
vt 1.000000 1.000000
vt 1.000000 0.000000
vt 0.000000 0.000000
vt 0.875000 0.000000
vt 0.875000 0.250000
vt 0.125000 0.000000
vt 0.125000 0.250000
vn -0.570093 0.007047 0.821550
vn -0.560401 0.003506 0.828214
vn -0.825702 -0.001556 0.564105
vn -0.816501 -0.008113 0.577287
vn -0.334192 0.007518 0.942475
vn -0.416573 0.007418 0.909072
vn -0.275937 0.007552 0.961146
vn 0.017738 0.007318 0.999816
vn 0.016720 0.007319 0.999833
vn 0.365032 0.006197 0.930974
vn 0.307896 0.006449 0.951398
vn 0.446370 0.005781 0.894830
vn 0.555031 0.005132 0.831814
vn 0.580420 0.018464 0.814108
vn 0.830511 0.014067 0.556825
vn 0.833274 0.019909 0.552502
vn 0.954076 0.010042 0.299398
vn 0.941067 -0.004584 0.338190
vn -0.001767 -0.999972 0.007354
vn -0.001768 -0.999971 0.007350
vn -0.001768 -0.999971 0.007352
vn -0.001769 -0.999971 0.007350
vn -0.001768 -0.999971 0.007351
vn -0.001769 -0.999971 0.007350
vn -0.001768 -0.999971 0.007350
vn -0.001768 -0.999972 0.007351
vn -0.001767 -0.999972 0.007350
vn -0.001769 -0.999972 0.007351
vn -0.001768 -0.999972 0.007350
vn 0.001768 0.999972 -0.007348
vn 0.001767 0.999971 -0.007349
vn 0.001767 0.999972 -0.007349
vn -0.001758 -0.999972 0.007344
vn 0.001768 0.999972 -0.007349
vn 0.001768 0.999972 -0.007349
vn 0.001768 0.999971 -0.007349
vn 0.001768 0.999972 -0.007349
vn 0.001768 0.999971 -0.007349
vn 0.001768 0.999971 -0.007349
vn 0.001768 0.999972 -0.007349
vn 0.001768 0.999971 -0.007349
vn 0.001769 0.999971 -0.007349
vn 0.001769 0.999972 -0.007349
vn 0.001769 0.999971 -0.007350
vn 0.001769 0.999971 -0.007349
vn 0.001769 0.999971 -0.007350
vn -0.940769 -0.016893 0.338627
vn -0.946587 -0.010223 0.322287
vn 0.000000 0.000000 1.000000
vn 0.000000 0.000000 1.000000
vn 0.000000 0.000000 1.000000
vn 0.000000 0.000000 1.000000
vn 0.000000 1.000000 0.000000
vn 0.000000 1.000000 0.000000
vn 0.000000 1.000000 0.000000
vn 0.000000 1.000000 0.000000
vn 0.000000 0.000000 -1.000000
vn 0.000000 0.000000 -1.000000
vn 0.000000 0.000000 -1.000000
vn 0.000000 0.000000 -1.000000
vn 0.000000 -1.000000 0.000000
vn 0.000000 -1.000000 0.000000
vn 0.000000 -1.000000 0.000000
vn 0.000000 -1.000000 0.000000
vn 1.000000 0.000000 0.000000
vn 1.000000 0.000000 0.000000
vn 1.000000 0.000000 0.000000
vn 1.000000 0.000000 0.000000
vn -1.000000 0.000000 0.000000
vn -1.000000 0.000000 0.000000
vn -1.000000 0.000000 0.000000
vn -1.000000 0.000000 0.000000
s 1
g polySurface315
f 42/97/73 51/98/74 41/99/75
f 41/99/75 51/98/74 50/100/76
f 51/103/74 42/101/73 59/104/77
f 59/104/77 42/101/73 43/102/78
f 59/104/77 52/105/79 51/103/74
f 60/106/80 53/107/81 59/108/77
f 59/108/77 53/107/81 52/109/79
f 61/110/82 54/111/83 60/112/80
f 60/112/80 54/111/83 53/113/81
f 45/116/84 46/114/85 61/117/82
f 61/117/82 46/114/85 55/115/86
f 55/115/86 54/118/83 61/117/82
f 46/119/85 47/120/87 55/121/86
f 55/121/86 47/120/87 56/122/88
f 47/123/87 48/124/89 56/125/88
f 56/125/88 48/124/89 57/126/90
s 5
f 40/127/91 58/128/92 62/129/93
f 42/131/94 41/130/95 58/128/92
f 41/130/95 62/129/93 58/128/92
f 42/131/94 58/128/92 43/132/96
f 43/132/96 58/128/92 44/133/97
f 46/134/98 45/135/99 58/128/92
f 58/128/92 45/135/99 44/133/97
f 46/134/98 58/128/92 47/136/100
f 47/136/100 58/128/92 48/137/101
s 6
f 70/138/102 49/139/103 50/140/104
f 49/139/103 63/141/105 50/140/104
f 50/142/104 51/143/106 70/144/102
f 70/144/102 51/143/106 69/145/107
f 51/146/106 52/147/108 69/148/107
f 69/148/107 52/147/108 68/149/109
f 52/150/108 53/151/110 68/152/109
f 68/152/109 53/151/110 67/153/111
f 54/154/112 66/155/113 53/156/110
f 53/156/110 66/155/113 67/157/111
f 55/158/114 65/159/115 54/160/112
f 54/160/112 65/159/115 66/161/113
f 56/162/116 64/163/117 55/164/114
f 55/164/114 64/163/117 65/165/115
f 56/166/116 57/167/118 64/168/117
s 1
f 63/169/119 62/170/120 50/171/76
f 50/171/76 62/170/120 41/172/75
s 10
f 71/173/121 72/174/122 73/176/123
f 73/176/123 72/174/122 74/175/124
s 11
f 73/177/125 74/178/126 75/180/127
f 75/180/127 74/178/126 76/179/128
s 12
f 75/181/129 76/182/130 77/184/131
f 77/184/131 76/182/130 78/183/132
s 13
f 77/185/133 78/186/134 71/188/135
f 71/188/135 78/186/134 72/187/136
s 14
f 72/174/137 78/189/138 74/175/139
f 74/175/139 78/189/138 76/190/140
s 15
f 77/191/141 71/173/142 75/192/143
f 75/192/143 71/173/142 73/176/144
